<?xml version="1.0" encoding="utf-8"?>
<!-- Generator: Adobe Illustrator 21.0.2, SVG Export Plug-In . SVG Version: 6.00 Build 0)  -->
<svg version="1.1" id="Layer_1" xmlns="http://www.w3.org/2000/svg" xmlns:xlink="http://www.w3.org/1999/xlink" x="0px" y="0px"
	 viewBox="0 0 200 200" style="enable-background:new 0 0 200 200;" xml:space="preserve">
<style type="text/css">
	.st0{clip-path:url(#SVGID_2_);fill:#FFFFFF;}
	.st1{clip-path:url(#SVGID_2_);fill:#125D9E;}
	.st2{clip-path:url(#SVGID_2_);fill:#0B4779;}
	.st3{clip-path:url(#SVGID_2_);fill:#1564A9;}
	.st4{clip-path:url(#SVGID_2_);fill:#0E4F87;}
	.st5{clip-path:url(#SVGID_2_);fill:#115793;}
	.st6{clip-path:url(#SVGID_2_);fill:#1461A5;}
	.st7{clip-path:url(#SVGID_2_);fill:#093E6A;}
	.st8{clip-path:url(#SVGID_2_);fill:#135D9C;}
	.st9{clip-path:url(#SVGID_2_);fill:#43B5F3;}
	.st10{clip-path:url(#SVGID_2_);fill:#1C7FC2;}
	.st11{clip-path:url(#SVGID_2_);fill:#2C84CB;}
	.st12{clip-path:url(#SVGID_2_);fill:#36B3ED;}
	.st13{clip-path:url(#SVGID_2_);fill:#083B68;}
	.st14{clip-path:url(#SVGID_2_);fill:#1A77BC;}
	.st15{clip-path:url(#SVGID_2_);fill:#1D7EC2;}
	.st16{clip-path:url(#SVGID_2_);fill:#0C497F;}
	.st17{clip-path:url(#SVGID_2_);fill:#0F4C82;}
	.st18{clip-path:url(#SVGID_2_);fill:#2B92D4;}
	.st19{clip-path:url(#SVGID_2_);fill:#27A4DE;}
	.st20{clip-path:url(#SVGID_2_);fill:#1769B2;}
	.st21{clip-path:url(#SVGID_2_);fill:#053156;}
	.st22{clip-path:url(#SVGID_2_);fill:#58A8E3;}
	.st23{clip-path:url(#SVGID_2_);fill:#2481C6;}
	.st24{clip-path:url(#SVGID_2_);fill:#299BD9;}
	.st25{clip-path:url(#SVGID_2_);fill:#0C4678;}
	.st26{clip-path:url(#SVGID_2_);fill:#2678C1;}
	.st27{clip-path:url(#SVGID_2_);fill:#105692;}
	.st28{clip-path:url(#SVGID_2_);fill:#27A0D9;}
	.st29{clip-path:url(#SVGID_2_);fill:#105590;}
	.st30{clip-path:url(#SVGID_2_);fill:#0D4A80;}
	.st31{clip-path:url(#SVGID_2_);fill:#2698D6;}
	.st32{clip-path:url(#SVGID_2_);fill:#1F77B7;}
	.st33{clip-path:url(#SVGID_2_);fill:#083962;}
	.st34{clip-path:url(#SVGID_2_);fill:#002748;}
	.st35{clip-path:url(#SVGID_2_);fill:#2087C9;}
	.st36{clip-path:url(#SVGID_2_);fill:#2D84CB;}
	.st37{clip-path:url(#SVGID_2_);fill:#2B8CD0;}
	.st38{clip-path:url(#SVGID_2_);fill:#1A6EB6;}
	.st39{clip-path:url(#SVGID_2_);fill:#053158;}
	.st40{clip-path:url(#SVGID_2_);fill:#0D4B7E;}
	.st41{clip-path:url(#SVGID_2_);fill:#1560A3;}
	.st42{clip-path:url(#SVGID_2_);fill:#0B4575;}
	.st43{clip-path:url(#SVGID_2_);fill:#125C9B;}
	.st44{clip-path:url(#SVGID_2_);fill:#145FA0;}
	.st45{clip-path:url(#SVGID_2_);fill:#073A65;}
	.st46{clip-path:url(#SVGID_2_);fill:#1D83C5;}
	.st47{clip-path:url(#SVGID_2_);fill:#0F5289;}
	.st48{clip-path:url(#SVGID_2_);fill:#2EA4E1;}
	.st49{clip-path:url(#SVGID_2_);fill:#1A69AE;}
	.st50{clip-path:url(#SVGID_2_);fill:#1976BB;}
	.st51{clip-path:url(#SVGID_2_);fill:#206FB4;}
	.st52{clip-path:url(#SVGID_2_);fill:#45B3F2;}
	.st53{clip-path:url(#SVGID_2_);fill:#1A72B9;}
	.st54{clip-path:url(#SVGID_2_);fill:#1F6DAF;}
	.st55{clip-path:url(#SVGID_2_);fill:#16609F;}
	.st56{clip-path:url(#SVGID_2_);fill:#208CCC;}
	.st57{clip-path:url(#SVGID_2_);fill:#1D7CC0;}
	.st58{clip-path:url(#SVGID_2_);fill:#2372B7;}
	.st59{clip-path:url(#SVGID_2_);fill:#2476BF;}
	.st60{clip-path:url(#SVGID_2_);fill:#2170B3;}
	.st61{clip-path:url(#SVGID_2_);fill:#27A2DD;}
	.st62{clip-path:url(#SVGID_2_);fill:#28A5DD;}
	.st63{clip-path:url(#SVGID_2_);fill:#2494D3;}
	.st64{clip-path:url(#SVGID_2_);fill:#135893;}
	.st65{clip-path:url(#SVGID_2_);fill:#043053;}
	.st66{clip-path:url(#SVGID_2_);fill:#1E6FB1;}
	.st67{clip-path:url(#SVGID_2_);fill:#1F6FB4;}
	.st68{clip-path:url(#SVGID_2_);fill:#267EC5;}
	.st69{clip-path:url(#SVGID_2_);fill:#032E50;}
	.st70{clip-path:url(#SVGID_2_);fill:#37B3E7;}
	.st71{clip-path:url(#SVGID_2_);fill:#206EB0;}
	.st72{clip-path:url(#SVGID_2_);fill:#135E98;}
	.st73{clip-path:url(#SVGID_2_);fill:#31B0E7;}
	.st74{clip-path:url(#SVGID_2_);fill:#237AC1;}
	.st75{clip-path:url(#SVGID_2_);fill:#175993;}
	.st76{clip-path:url(#SVGID_2_);fill:#07375F;}
	.st77{clip-path:url(#SVGID_2_);fill:#0C487C;}
</style>
<g>
	<defs>
		<rect id="SVGID_1_" x="0.3" y="-15.4" width="227" height="262.4"/>
	</defs>
	<clipPath id="SVGID_2_">
		<use xlink:href="#SVGID_1_"  style="overflow:visible;"/>
	</clipPath>
	<rect x="0.3" y="-15.4" class="st0" width="227" height="262.4"/>
	<polygon class="st1" points="-42.4,82.5 -42.4,159.9 6.4,121.6 	"/>
	<polygon class="st2" points="-42.4,4.3 -42.4,82.5 6.4,46.5 	"/>
	<polygon class="st3" points="6.4,121.6 -42.4,159.9 32.3,152.1 	"/>
	<polygon class="st4" points="6.4,46.5 -42.4,82.5 43.8,93.4 	"/>
	<polygon class="st5" points="-42.4,82.5 6.4,121.6 43.8,93.4 	"/>
	<polygon class="st6" points="6.4,121.6 32.3,152.1 43.8,135.6 	"/>
	<polygon class="st7" points="-25.1,-26.3 6.4,46.5 49.5,30.1 	"/>
	<polygon class="st8" points="6.4,121.6 43.8,135.6 43.8,93.4 	"/>
	<polygon class="st10" points="-42.4,159.9 -42.4,238.1 43.8,234.2 	"/>
	<polygon class="st11" points="32.3,152.1 -42.4,159.9 43.8,234.2 	"/>
	<polygon class="st13" points="-25.1,-26.3 -42.4,4.3 6.4,46.5 	"/>
	<polygon class="st14" points="32.3,152.1 43.8,234.2 72.5,182.6 	"/>
	<polygon class="st15" points="72.5,182.6 43.8,234.2 75.3,213.1 	"/>
	<polygon class="st16" points="6.4,46.5 43.8,93.4 49.5,30.1 	"/>
	<polygon class="st17" points="49.5,30.1 43.8,93.4 81.1,55.9 	"/>
	<polygon class="st1" points="43.8,93.4 43.8,135.6 75.3,135.6 	"/>
	<polygon class="st3" points="43.8,135.6 32.3,152.1 75.3,135.6 	"/>
	<polygon class="st20" points="32.3,152.1 72.5,182.6 75.3,135.6 	"/>
	<polygon class="st21" points="-25.1,-26.3 49.5,30.1 52.4,-73.2 	"/>
	<polygon class="st22" points="75.3,135.6 72.5,182.6 104.1,180.2 	"/>
	<polygon class="st23" points="72.5,182.6 75.3,213.1 104.1,180.2 	"/>
	<polygon class="st25" points="49.5,30.1 81.1,55.9 124.1,39.4 	"/>
	<polygon class="st26" points="75.3,135.6 104.1,180.2 129.9,149.7 	"/>
	<polygon class="st27" points="43.8,93.4 75.3,135.6 81.1,55.9 	"/>
	<polygon class="st29" points="81.1,55.9 75.3,135.6 155.7,77 	"/>
	<polygon class="st30" points="124.1,39.4 81.1,55.9 155.7,77 	"/>
	<polygon class="st10" points="75.3,213.1 86.8,236.5 104.1,180.2 	"/>
	<polygon class="st32" points="75.3,135.6 129.9,149.7 155.7,77 	"/>
	<polygon class="st33" points="52.4,-73.2 49.5,30.1 124.1,39.4 	"/>
	<polygon class="st34" points="52.4,-73.2 124.1,39.4 148.1,-73.2 	"/>
	<polygon class="st35" points="104.1,180.2 86.8,236.5 170.1,250.6 	"/>
	<polygon class="st36" points="129.9,149.7 104.1,180.2 193.1,187.3 	"/>
	<polygon class="st37" points="104.1,180.2 170.1,250.6 193.1,187.3 	"/>
	<polygon class="st38" points="129.9,149.7 193.1,187.3 201.7,149.7 	"/>
	<polygon class="st39" points="148.1,-73.2 124.1,39.4 213.1,-45 	"/>
	<polygon class="st40" points="124.1,39.4 155.7,77 213.1,39.4 	"/>
	<polygon class="st41" points="155.7,77 129.9,149.7 201.7,149.7 	"/>
	<polygon class="st42" points="124.1,39.4 213.1,39.4 224.6,16 	"/>
	<polygon class="st43" points="155.7,77 201.7,149.7 224.6,102.8 	"/>
	<polygon class="st45" points="213.1,-45 124.1,39.4 224.6,16 	"/>
	<polygon class="st46" points="193.1,187.3 170.1,250.6 224.6,206 	"/>
	<polygon class="st38" points="201.7,149.7 193.1,187.3 233.2,156.8 	"/>
	<polygon class="st47" points="213.1,39.4 155.7,77 224.6,102.8 	"/>
	<polygon class="st50" points="193.1,187.3 224.6,206 233.2,156.8 	"/>
</g>
</svg>
